<svg width="139" height="72" viewBox="0 0 139 72" fill="none" xmlns="http://www.w3.org/2000/svg">
<path d="M17.0156 14.1172C16.8073 14.1172 16.5807 14.099 16.3359 14.0625C16.0964 14.0312 15.8542 13.9609 15.6094 13.8516C15.3698 13.7422 15.138 13.5885 14.9141 13.3906C14.6953 13.1875 14.5 12.9219 14.3281 12.5938C14.1615 12.2656 14.026 11.862 13.9219 11.3828C13.8229 10.8984 13.7734 10.3229 13.7734 9.65625V4.92969C13.7734 4.25781 13.8255 3.6849 13.9297 3.21094C14.0339 2.73177 14.1719 2.33073 14.3438 2.00781C14.5156 1.67969 14.7135 1.41927 14.9375 1.22656C15.1615 1.03385 15.3932 0.888021 15.6328 0.789062C15.8724 0.684896 16.1094 0.617188 16.3438 0.585938C16.5833 0.554688 16.8047 0.539062 17.0078 0.539062C17.5391 0.539062 17.9818 0.614583 18.3359 0.765625C18.6953 0.911458 18.9818 1.11458 19.1953 1.375C19.4141 1.63021 19.5677 1.92969 19.6562 2.27344C19.75 2.61719 19.7969 2.98177 19.7969 3.36719C19.7969 3.65365 19.7812 3.91927 19.75 4.16406C19.724 4.40365 19.6823 4.66927 19.625 4.96094H17.9844V4.28125C17.9844 3.54688 17.9036 2.9974 17.7422 2.63281C17.5807 2.26823 17.3438 2.08594 17.0312 2.08594C16.8438 2.08594 16.6797 2.1224 16.5391 2.19531C16.3984 2.26823 16.2812 2.39323 16.1875 2.57031C16.0938 2.74219 16.0208 2.97135 15.9688 3.25781C15.9219 3.54427 15.8984 3.90104 15.8984 4.32812V10.4219C15.8984 10.8385 15.9167 11.1849 15.9531 11.4609C15.9948 11.737 16.0599 11.9583 16.1484 12.125C16.237 12.2917 16.3516 12.4115 16.4922 12.4844C16.638 12.5521 16.8125 12.5859 17.0156 12.5859C17.1458 12.5859 17.2708 12.5573 17.3906 12.5C17.5104 12.4375 17.6146 12.3438 17.7031 12.2188C17.7969 12.0885 17.8698 11.9271 17.9219 11.7344C17.9792 11.5365 18.0078 11.3047 18.0078 11.0391V9.73438H19.8594V10.9688C19.8594 12.0417 19.6146 12.8333 19.125 13.3438C18.6354 13.8542 17.9323 14.112 17.0156 14.1172ZM25.0462 14.1172C24.8327 14.1172 24.6009 14.099 24.3509 14.0625C24.1009 14.0312 23.8535 13.9609 23.6087 13.8516C23.364 13.7422 23.127 13.5885 22.8978 13.3906C22.6739 13.1875 22.4733 12.9219 22.2962 12.5938C22.1244 12.2656 21.9864 11.862 21.8822 11.3828C21.778 10.8984 21.7259 10.3229 21.7259 9.65625V4.92969C21.7259 4.25781 21.778 3.6849 21.8822 3.21094C21.9916 2.73177 22.1348 2.33073 22.3119 2.00781C22.489 1.67969 22.6895 1.41927 22.9134 1.22656C23.1426 1.03385 23.3796 0.888021 23.6244 0.789062C23.8744 0.684896 24.1218 0.617188 24.3666 0.585938C24.6114 0.554688 24.8379 0.539062 25.0462 0.539062C25.2442 0.539062 25.4629 0.554688 25.7025 0.585938C25.9473 0.611979 26.1895 0.674479 26.4291 0.773438C26.6739 0.867188 26.9108 1.01042 27.14 1.20312C27.3692 1.39062 27.5723 1.64844 27.7494 1.97656C27.9265 2.29948 28.0671 2.70312 28.1712 3.1875C28.2806 3.66667 28.3353 4.2474 28.3353 4.92969V9.65625C28.3353 10.3177 28.2806 10.888 28.1712 11.3672C28.0619 11.8411 27.9186 12.2448 27.7416 12.5781C27.5645 12.9062 27.3587 13.1719 27.1244 13.375C26.8952 13.5729 26.6582 13.7292 26.4134 13.8438C26.1739 13.9531 25.9343 14.026 25.6947 14.0625C25.4551 14.099 25.239 14.1172 25.0462 14.1172ZM25.0462 12.5938C25.2442 12.5938 25.416 12.5599 25.5619 12.4922C25.7129 12.4245 25.8353 12.3073 25.9291 12.1406C26.028 11.974 26.1009 11.7552 26.1478 11.4844C26.1999 11.2083 26.2259 10.862 26.2259 10.4453V4.375C26.2259 3.94792 26.1999 3.59115 26.1478 3.30469C26.1009 3.01823 26.028 2.78906 25.9291 2.61719C25.8353 2.4401 25.7129 2.3151 25.5619 2.24219C25.416 2.16927 25.2442 2.13281 25.0462 2.13281C24.8431 2.13281 24.666 2.16927 24.515 2.24219C24.364 2.3151 24.239 2.4401 24.14 2.61719C24.041 2.78906 23.9655 3.01823 23.9134 3.30469C23.8666 3.59115 23.8431 3.94792 23.8431 4.375V10.4453C23.8431 10.862 23.8666 11.2083 23.9134 11.4844C23.9655 11.7552 24.041 11.974 24.14 12.1406C24.239 12.3073 24.364 12.4245 24.515 12.4922C24.666 12.5599 24.8431 12.5938 25.0462 12.5938ZM30.8894 0.65625H32.9128V12.4062H35.6706V14H30.8894V0.65625ZM37.545 0.65625H39.5841V10.4375C39.5841 10.8542 39.6049 11.2005 39.6466 11.4766C39.6882 11.7526 39.7533 11.974 39.8419 12.1406C39.9356 12.3021 40.0528 12.4193 40.1934 12.4922C40.3393 12.5599 40.5111 12.5938 40.7091 12.5938C40.907 12.5938 41.0789 12.5599 41.2247 12.4922C41.3757 12.4193 41.4981 12.3021 41.5919 12.1406C41.6908 11.974 41.7638 11.7526 41.8106 11.4766C41.8627 11.2005 41.8888 10.8542 41.8888 10.4375V0.65625H43.9044V9.89844C43.9044 10.5495 43.8523 11.1068 43.7481 11.5703C43.644 12.0339 43.5059 12.4219 43.3341 12.7344C43.1622 13.0469 42.9643 13.2943 42.7403 13.4766C42.5216 13.6589 42.2924 13.7995 42.0528 13.8984C41.8184 13.9922 41.5841 14.0521 41.3497 14.0781C41.1153 14.1042 40.9018 14.1172 40.7091 14.1172C40.5164 14.1172 40.3028 14.1042 40.0684 14.0781C39.8393 14.0521 39.6075 13.9922 39.3731 13.8984C39.1388 13.7995 38.9122 13.6589 38.6934 13.4766C38.4747 13.2943 38.2794 13.0469 38.1075 12.7344C37.9356 12.4219 37.7976 12.0365 37.6934 11.5781C37.5945 11.1146 37.545 10.5547 37.545 9.89844V0.65625ZM46.7788 0.65625H49.4194L50.7006 5.82031C50.836 6.39323 50.9428 6.9401 51.0209 7.46094C51.0991 7.97656 51.1746 8.46354 51.2475 8.92188H51.31C51.3829 8.46354 51.4584 7.97656 51.5366 7.46094C51.6147 6.9401 51.7215 6.39323 51.8569 5.82031L53.1772 0.65625H55.7631V14H53.8725V9.58594C53.8725 8.90885 53.8777 8.25781 53.8881 7.63281C53.9038 7.00781 53.922 6.4349 53.9428 5.91406C53.9636 5.38802 53.9871 4.92448 54.0131 4.52344C54.0392 4.1224 54.0626 3.80469 54.0834 3.57031H53.935L51.9194 12.2812H50.6381L48.6069 3.57031H48.4584C48.4793 3.80469 48.5027 4.1224 48.5288 4.52344C48.5548 4.92448 48.5782 5.38802 48.5991 5.91406C48.6199 6.4349 48.6355 7.00781 48.6459 7.63281C48.6616 8.25781 48.6694 8.90885 48.6694 9.58594V14H46.7788V0.65625ZM58.6844 0.65625H60.7313C61.0333 0.65625 61.3458 0.666667 61.6688 0.6875C61.9917 0.708333 62.3068 0.752604 62.6141 0.820312C62.9214 0.888021 63.213 0.989583 63.4891 1.125C63.7651 1.25521 64.0047 1.43229 64.2078 1.65625C64.4161 1.88021 64.5802 2.15885 64.7 2.49219C64.825 2.82031 64.8875 3.21615 64.8875 3.67969V4.32812C64.8875 4.68229 64.8354 5.00781 64.7313 5.30469C64.6323 5.60156 64.4995 5.86458 64.3328 6.09375C64.1661 6.31771 63.976 6.50521 63.7625 6.65625C63.549 6.80208 63.3302 6.90104 63.1063 6.95312V7.01562C63.7677 7.13542 64.2651 7.45052 64.5984 7.96094C64.937 8.46615 65.1063 9.11458 65.1063 9.90625V10.5859C65.1063 11.0703 65.0516 11.4922 64.9422 11.8516C64.838 12.2057 64.6896 12.5104 64.4969 12.7656C64.3042 13.0156 64.075 13.2214 63.8094 13.3828C63.5438 13.5443 63.2521 13.6719 62.9344 13.7656C62.6167 13.8542 62.2781 13.9167 61.9188 13.9531C61.5594 13.9844 61.1896 14 60.8094 14H58.6844V0.65625ZM61.0594 6.36719C61.3302 6.36719 61.5776 6.33594 61.8016 6.27344C62.0255 6.20573 62.2156 6.10417 62.3719 5.96875C62.5333 5.82812 62.6557 5.64844 62.7391 5.42969C62.8276 5.20573 62.8719 4.9375 62.8719 4.625V4.07812C62.8719 3.76562 62.8406 3.48958 62.7781 3.25C62.7156 3.01042 62.6115 2.80729 62.4656 2.64062C62.325 2.47396 62.1375 2.34896 61.9031 2.26562C61.674 2.17708 61.3927 2.13281 61.0594 2.13281H60.6688V6.36719H61.0594ZM61.2469 12.5938C61.5177 12.5938 61.7625 12.5599 61.9813 12.4922C62.2052 12.4193 62.3953 12.3099 62.5516 12.1641C62.713 12.013 62.8354 11.8229 62.9188 11.5938C63.0073 11.3646 63.0516 11.0938 63.0516 10.7812V9.74219C63.0516 9.42969 63.0203 9.15365 62.9578 8.91406C62.8953 8.66927 62.7911 8.46615 62.6453 8.30469C62.5047 8.13802 62.3198 8.01302 62.0906 7.92969C61.8615 7.84115 61.5802 7.79688 61.2469 7.79688H60.6688V12.5938H61.2469ZM67.5119 0.65625H69.5353V14H67.5119V0.65625ZM73.9331 0.65625H76.2612L78.73 14H76.6831L76.3159 11.6094H73.8784L73.5269 14H71.4722L73.9331 0.65625ZM76.0816 10.0859L75.1441 3.4375H75.0581L74.1128 10.0859H76.0816ZM87.4241 14.125C87.2678 14.125 87.0855 14.1068 86.8772 14.0703C86.6689 14.0391 86.4527 13.9688 86.2288 13.8594C86.01 13.75 85.7939 13.5964 85.5803 13.3984C85.3668 13.1953 85.1741 12.9297 85.0022 12.6016C84.8355 12.2682 84.7001 11.862 84.5959 11.3828C84.4918 10.8984 84.4397 10.3229 84.4397 9.65625V4.92969C84.4397 4.25781 84.4944 3.6849 84.6038 3.21094C84.7131 2.73177 84.859 2.33073 85.0413 2.00781C85.2235 1.67969 85.4319 1.41927 85.6663 1.22656C85.9058 1.03385 86.1532 0.888021 86.4084 0.789062C86.6636 0.684896 86.9163 0.617188 87.1663 0.585938C87.4163 0.554688 87.648 0.539062 87.8616 0.539062C88.4032 0.539062 88.859 0.614583 89.2288 0.765625C89.6038 0.911458 89.9058 1.11458 90.135 1.375C90.3694 1.63021 90.536 1.92969 90.635 2.27344C90.7392 2.61719 90.7913 2.98177 90.7913 3.36719C90.7913 3.65365 90.773 3.91927 90.7366 4.16406C90.7053 4.40365 90.661 4.66927 90.6038 4.96094H88.9866V4.32812C88.9866 2.86458 88.5933 2.13281 87.8069 2.13281C87.5933 2.13281 87.4084 2.16927 87.2522 2.24219C87.0959 2.3151 86.9657 2.4401 86.8616 2.61719C86.7574 2.78906 86.6793 3.01823 86.6272 3.30469C86.5803 3.59115 86.5569 3.94792 86.5569 4.375V10.4219C86.5569 10.8385 86.5803 11.1849 86.6272 11.4609C86.6793 11.737 86.7548 11.9583 86.8538 12.125C86.9579 12.2917 87.0855 12.4115 87.2366 12.4844C87.3928 12.5521 87.5777 12.5859 87.7913 12.5859C88.0152 12.5859 88.2079 12.5286 88.3694 12.4141C88.5308 12.2943 88.6636 12.1328 88.7678 11.9297C88.872 11.7266 88.9475 11.487 88.9944 11.2109C89.0465 10.9349 89.0725 10.6354 89.0725 10.3125V8.57031H88.0334V7.24219H91.0413V14H89.6975L89.4788 12.7344C89.2235 13.2292 88.9293 13.5859 88.5959 13.8047C88.2678 14.0182 87.8772 14.125 87.4241 14.125ZM96.5094 14.1172C96.2958 14.1172 96.0641 14.099 95.8141 14.0625C95.5641 14.0312 95.3167 13.9609 95.0719 13.8516C94.8271 13.7422 94.5901 13.5885 94.3609 13.3906C94.137 13.1875 93.9365 12.9219 93.7594 12.5938C93.5875 12.2656 93.4495 11.862 93.3453 11.3828C93.2411 10.8984 93.1891 10.3229 93.1891 9.65625V4.92969C93.1891 4.25781 93.2411 3.6849 93.3453 3.21094C93.4547 2.73177 93.5979 2.33073 93.775 2.00781C93.9521 1.67969 94.1526 1.41927 94.3766 1.22656C94.6057 1.03385 94.8427 0.888021 95.0875 0.789062C95.3375 0.684896 95.5849 0.617188 95.8297 0.585938C96.0745 0.554688 96.301 0.539062 96.5094 0.539062C96.7073 0.539062 96.926 0.554688 97.1656 0.585938C97.4104 0.611979 97.6526 0.674479 97.8922 0.773438C98.137 0.867188 98.374 1.01042 98.6031 1.20312C98.8323 1.39062 99.0354 1.64844 99.2125 1.97656C99.3896 2.29948 99.5302 2.70312 99.6344 3.1875C99.7438 3.66667 99.7984 4.2474 99.7984 4.92969V9.65625C99.7984 10.3177 99.7438 10.888 99.6344 11.3672C99.525 11.8411 99.3818 12.2448 99.2047 12.5781C99.0276 12.9062 98.8219 13.1719 98.5875 13.375C98.3583 13.5729 98.1214 13.7292 97.8766 13.8438C97.637 13.9531 97.3974 14.026 97.1578 14.0625C96.9182 14.099 96.7021 14.1172 96.5094 14.1172ZM96.5094 12.5938C96.7073 12.5938 96.8792 12.5599 97.025 12.4922C97.176 12.4245 97.2984 12.3073 97.3922 12.1406C97.4911 11.974 97.5641 11.7552 97.6109 11.4844C97.663 11.2083 97.6891 10.862 97.6891 10.4453V4.375C97.6891 3.94792 97.663 3.59115 97.6109 3.30469C97.5641 3.01823 97.4911 2.78906 97.3922 2.61719C97.2984 2.4401 97.176 2.3151 97.025 2.24219C96.8792 2.16927 96.7073 2.13281 96.5094 2.13281C96.3063 2.13281 96.1292 2.16927 95.9781 2.24219C95.8271 2.3151 95.7021 2.4401 95.6031 2.61719C95.5042 2.78906 95.4286 3.01823 95.3766 3.30469C95.3297 3.59115 95.3063 3.94792 95.3063 4.375V10.4453C95.3063 10.862 95.3297 11.2083 95.3766 11.4844C95.4286 11.7552 95.5042 11.974 95.6031 12.1406C95.7021 12.3073 95.8271 12.4245 95.9781 12.4922C96.1292 12.5599 96.3063 12.5938 96.5094 12.5938ZM102.353 0.65625H104.548C104.798 0.65625 105.071 0.666667 105.368 0.6875C105.67 0.708333 105.97 0.760417 106.267 0.84375C106.569 0.921875 106.858 1.04167 107.134 1.20312C107.415 1.36458 107.662 1.58594 107.876 1.86719C108.095 2.14844 108.269 2.5026 108.399 2.92969C108.53 3.35156 108.595 3.86458 108.595 4.46875V4.80469C108.595 5.82031 108.449 6.64844 108.157 7.28906C107.866 7.92448 107.436 8.38281 106.868 8.66406L109.009 14H106.868L105.095 9.00781H104.337V14H102.353V0.65625ZM104.642 7.54688C104.996 7.54688 105.295 7.50781 105.54 7.42969C105.785 7.35156 105.983 7.22135 106.134 7.03906C106.285 6.85156 106.394 6.60677 106.462 6.30469C106.53 5.9974 106.563 5.61979 106.563 5.17188V4.11719C106.563 3.77344 106.532 3.47656 106.47 3.22656C106.407 2.97656 106.3 2.77083 106.149 2.60938C106.004 2.44792 105.808 2.32812 105.563 2.25C105.319 2.17188 105.011 2.13281 104.642 2.13281H104.337V7.54688H104.642ZM113.875 14.125C113.719 14.125 113.537 14.1068 113.328 14.0703C113.12 14.0391 112.904 13.9688 112.68 13.8594C112.461 13.75 112.245 13.5964 112.032 13.3984C111.818 13.1953 111.625 12.9297 111.453 12.6016C111.287 12.2682 111.151 11.862 111.047 11.3828C110.943 10.8984 110.891 10.3229 110.891 9.65625V4.92969C110.891 4.25781 110.946 3.6849 111.055 3.21094C111.164 2.73177 111.31 2.33073 111.493 2.00781C111.675 1.67969 111.883 1.41927 112.118 1.22656C112.357 1.03385 112.604 0.888021 112.86 0.789062C113.115 0.684896 113.368 0.617188 113.618 0.585938C113.868 0.554688 114.099 0.539062 114.313 0.539062C114.854 0.539062 115.31 0.614583 115.68 0.765625C116.055 0.911458 116.357 1.11458 116.586 1.375C116.821 1.63021 116.987 1.92969 117.086 2.27344C117.19 2.61719 117.243 2.98177 117.243 3.36719C117.243 3.65365 117.224 3.91927 117.188 4.16406C117.157 4.40365 117.112 4.66927 117.055 4.96094H115.438V4.32812C115.438 2.86458 115.045 2.13281 114.258 2.13281C114.045 2.13281 113.86 2.16927 113.703 2.24219C113.547 2.3151 113.417 2.4401 113.313 2.61719C113.209 2.78906 113.131 3.01823 113.078 3.30469C113.032 3.59115 113.008 3.94792 113.008 4.375V10.4219C113.008 10.8385 113.032 11.1849 113.078 11.4609C113.131 11.737 113.206 11.9583 113.305 12.125C113.409 12.2917 113.537 12.4115 113.688 12.4844C113.844 12.5521 114.029 12.5859 114.243 12.5859C114.466 12.5859 114.659 12.5286 114.821 12.4141C114.982 12.2943 115.115 12.1328 115.219 11.9297C115.323 11.7266 115.399 11.487 115.446 11.2109C115.498 10.9349 115.524 10.6354 115.524 10.3125V8.57031H114.485V7.24219H117.493V14H116.149L115.93 12.7344C115.675 13.2292 115.381 13.5859 115.047 13.8047C114.719 14.0182 114.328 14.125 113.875 14.125ZM120.007 0.65625H124.953V2.25H122.031V6.24219H124.289V7.83594H122.031V12.4062H125.031V14H120.007V0.65625Z" fill="#FAFAFA"/>
<path d="M0.578125 21.3125H4.45312L6.25 37.4375L6.45312 41.2031H6.84375L7.21875 36.9688L10.0938 21.3125H13.3281L16.0781 36.9688L16.3906 41.2031H16.7969L16.9844 37.4375L18.625 21.3125H22.5156L18.7812 48H14.6719L12.4688 35.1719L11.7812 29.5938H11.4688L10.7969 35.1719L8.48438 48H4.42188L0.578125 21.3125ZM26.6863 21.3125H36.5769V24.5H30.7331V32.4844H35.2488V35.6719H30.7331V44.8125H36.7331V48H26.6863V21.3125ZM40.935 21.3125H45.3256C45.8256 21.3125 46.3725 21.3333 46.9663 21.375C47.5704 21.4167 48.1694 21.5208 48.7631 21.6875C49.3673 21.8438 49.9454 22.0833 50.4975 22.4062C51.06 22.7292 51.5548 23.1719 51.9819 23.7344C52.4194 24.2969 52.7683 25.0052 53.0288 25.8594C53.2892 26.7031 53.4194 27.7292 53.4194 28.9375V29.6094C53.4194 31.6406 53.1277 33.2969 52.5444 34.5781C51.961 35.849 51.1017 36.7656 49.9663 37.3281L54.2475 48H49.9663L46.4194 38.0156H44.9038V48H40.935V21.3125ZM45.5131 35.0938C46.2215 35.0938 46.8204 35.0156 47.31 34.8594C47.7996 34.7031 48.1954 34.4427 48.4975 34.0781C48.7996 33.7031 49.0183 33.2135 49.1538 32.6094C49.2892 31.9948 49.3569 31.2396 49.3569 30.3438V28.2344C49.3569 27.5469 49.2944 26.9531 49.1694 26.4531C49.0444 25.9531 48.8308 25.5417 48.5288 25.2188C48.2371 24.8958 47.8465 24.6562 47.3569 24.5C46.8673 24.3438 46.2527 24.2656 45.5131 24.2656H44.9038V35.0938H45.5131ZM58.59 21.3125H68.4806V24.5H62.6369V32.4844H67.1525V35.6719H62.6369V44.8125H68.6369V48H58.59V21.3125ZM71.1356 21.3125H75.0106L76.8075 37.4375L77.0106 41.2031H77.4013L77.7763 36.9688L80.6513 21.3125H83.8856L86.6356 36.9688L86.9481 41.2031H87.3544L87.5419 37.4375L89.1825 21.3125H93.0731L89.3388 48H85.2294L83.0263 35.1719L82.3388 29.5938H82.0263L81.3544 35.1719L79.0419 48H74.9794L71.1356 21.3125ZM103.15 48.2344C102.723 48.2344 102.259 48.1979 101.759 48.125C101.259 48.0625 100.765 47.9219 100.275 47.7031C99.7854 47.4844 99.3115 47.1771 98.8531 46.7812C98.4052 46.375 98.0042 45.8438 97.65 45.1875C97.3063 44.5312 97.0302 43.724 96.8219 42.7656C96.6135 41.7969 96.5094 40.6458 96.5094 39.3125V29.8594C96.5094 28.5156 96.6135 27.3698 96.8219 26.4219C97.0406 25.4635 97.3271 24.6615 97.6813 24.0156C98.0354 23.3594 98.4365 22.8385 98.8844 22.4531C99.3427 22.0677 99.8167 21.776 100.306 21.5781C100.806 21.3698 101.301 21.2344 101.791 21.1719C102.28 21.1094 102.733 21.0781 103.15 21.0781C103.546 21.0781 103.983 21.1094 104.463 21.1719C104.952 21.224 105.436 21.349 105.916 21.5469C106.405 21.7344 106.879 22.0208 107.338 22.4062C107.796 22.7812 108.202 23.2969 108.556 23.9531C108.91 24.599 109.192 25.4062 109.4 26.375C109.619 27.3333 109.728 28.4948 109.728 29.8594V39.3125C109.728 40.6354 109.619 41.776 109.4 42.7344C109.181 43.6823 108.895 44.4896 108.541 45.1562C108.186 45.8125 107.775 46.3438 107.306 46.75C106.848 47.1458 106.374 47.4583 105.884 47.6875C105.405 47.9062 104.926 48.0521 104.447 48.125C103.968 48.1979 103.535 48.2344 103.15 48.2344ZM103.15 45.1875C103.546 45.1875 103.89 45.1198 104.181 44.9844C104.483 44.849 104.728 44.6146 104.916 44.2812C105.114 43.9479 105.259 43.5104 105.353 42.9688C105.457 42.4167 105.509 41.724 105.509 40.8906V28.75C105.509 27.8958 105.457 27.1823 105.353 26.6094C105.259 26.0365 105.114 25.5781 104.916 25.2344C104.728 24.8802 104.483 24.6302 104.181 24.4844C103.89 24.3385 103.546 24.2656 103.15 24.2656C102.744 24.2656 102.39 24.3385 102.088 24.4844C101.785 24.6302 101.535 24.8802 101.338 25.2344C101.14 25.5781 100.989 26.0365 100.884 26.6094C100.791 27.1823 100.744 27.8958 100.744 28.75V40.8906C100.744 41.724 100.791 42.4167 100.884 42.9688C100.989 43.5104 101.14 43.9479 101.338 44.2812C101.535 44.6146 101.785 44.849 102.088 44.9844C102.39 45.1198 102.744 45.1875 103.15 45.1875ZM114.836 21.3125H118.883V44.8125H124.399V48H114.836V21.3125ZM128.241 21.3125H138.444V24.5H132.288V32.4844H137.116V35.6719H132.288V48H128.241V21.3125Z" fill="#FAFAFA"/>
<path d="M35.2891 56.6562H37.2266L38.125 64.7188L38.2266 66.6016H38.4219L38.6094 64.4844L40.0469 56.6562H41.6641L43.0391 64.4844L43.1953 66.6016H43.3984L43.4922 64.7188L44.3125 56.6562H46.2578L44.3906 70H42.3359L41.2344 63.5859L40.8906 60.7969H40.7344L40.3984 63.5859L39.2422 70H37.2109L35.2891 56.6562ZM49.8119 56.6562H52.14L54.6088 70H52.5619L52.1947 67.6094H49.7572L49.4056 70H47.3509L49.8119 56.6562ZM51.9603 66.0859L51.0228 59.4375H50.9369L49.9916 66.0859H51.9603ZM57.78 58.25H55.6316V56.6562H61.9441V58.25H59.8034V70H57.78V58.25ZM66.8263 70.1172C66.6179 70.1172 66.3914 70.099 66.1466 70.0625C65.907 70.0312 65.6648 69.9609 65.42 69.8516C65.1804 69.7422 64.9486 69.5885 64.7247 69.3906C64.5059 69.1875 64.3106 68.9219 64.1388 68.5938C63.9721 68.2656 63.8367 67.862 63.7325 67.3828C63.6335 66.8984 63.5841 66.3229 63.5841 65.6562V60.9297C63.5841 60.2578 63.6361 59.6849 63.7403 59.2109C63.8445 58.7318 63.9825 58.3307 64.1544 58.0078C64.3263 57.6797 64.5242 57.4193 64.7481 57.2266C64.9721 57.0339 65.2039 56.888 65.4434 56.7891C65.683 56.6849 65.92 56.6172 66.1544 56.5859C66.394 56.5547 66.6153 56.5391 66.8184 56.5391C67.3497 56.5391 67.7924 56.6146 68.1466 56.7656C68.5059 56.9115 68.7924 57.1146 69.0059 57.375C69.2247 57.6302 69.3783 57.9297 69.4669 58.2734C69.5606 58.6172 69.6075 58.9818 69.6075 59.3672C69.6075 59.6536 69.5919 59.9193 69.5606 60.1641C69.5346 60.4036 69.4929 60.6693 69.4356 60.9609H67.795V60.2812C67.795 59.5469 67.7143 58.9974 67.5528 58.6328C67.3914 58.2682 67.1544 58.0859 66.8419 58.0859C66.6544 58.0859 66.4903 58.1224 66.3497 58.1953C66.2091 58.2682 66.0919 58.3932 65.9981 58.5703C65.9044 58.7422 65.8315 58.9714 65.7794 59.2578C65.7325 59.5443 65.7091 59.901 65.7091 60.3281V66.4219C65.7091 66.8385 65.7273 67.1849 65.7638 67.4609C65.8054 67.737 65.8705 67.9583 65.9591 68.125C66.0476 68.2917 66.1622 68.4115 66.3028 68.4844C66.4486 68.5521 66.6231 68.5859 66.8263 68.5859C66.9565 68.5859 67.0815 68.5573 67.2013 68.5C67.321 68.4375 67.4252 68.3438 67.5138 68.2188C67.6075 68.0885 67.6804 67.9271 67.7325 67.7344C67.7898 67.5365 67.8184 67.3047 67.8184 67.0391V65.7344H69.67V66.9688C69.67 68.0417 69.4252 68.8333 68.9356 69.3438C68.446 69.8542 67.7429 70.112 66.8263 70.1172ZM71.9038 56.6562H73.9272V62.2422H76.3256V56.6562H78.3491V70H76.3256V63.8359H73.9272V70H71.9038V56.6562ZM81.2938 56.6562H86.2391V58.25H83.3172V62.2422H85.575V63.8359H83.3172V68.4062H86.3172V70H81.2938V56.6562ZM88.4181 56.6562H90.6134C90.8634 56.6562 91.1369 56.6667 91.4338 56.6875C91.7358 56.7083 92.0353 56.7604 92.3322 56.8438C92.6343 56.9219 92.9233 57.0417 93.1994 57.2031C93.4806 57.3646 93.728 57.5859 93.9416 57.8672C94.1603 58.1484 94.3348 58.5026 94.465 58.9297C94.5952 59.3516 94.6603 59.8646 94.6603 60.4688V60.8047C94.6603 61.8203 94.5145 62.6484 94.2228 63.2891C93.9311 63.9245 93.5015 64.3828 92.9338 64.6641L95.0744 70H92.9338L91.1603 65.0078H90.4025V70H88.4181V56.6562ZM90.7072 63.5469C91.0614 63.5469 91.3608 63.5078 91.6056 63.4297C91.8504 63.3516 92.0483 63.2214 92.1994 63.0391C92.3504 62.8516 92.4598 62.6068 92.5275 62.3047C92.5952 61.9974 92.6291 61.6198 92.6291 61.1719V60.1172C92.6291 59.7734 92.5978 59.4766 92.5353 59.2266C92.4728 58.9766 92.366 58.7708 92.215 58.6094C92.0692 58.4479 91.8739 58.3281 91.6291 58.25C91.3843 58.1719 91.077 58.1328 90.7072 58.1328H90.4025V63.5469H90.7072ZM96.73 67.2969C96.73 67.0104 96.7456 66.7474 96.7769 66.5078C96.8133 66.263 96.8654 66 96.9331 65.7188H98.5034V66.3672C98.5034 66.7266 98.5243 67.0443 98.5659 67.3203C98.6128 67.5964 98.6857 67.8307 98.7847 68.0234C98.8889 68.2109 99.0243 68.3542 99.1909 68.4531C99.3628 68.5469 99.5711 68.5938 99.8159 68.5938C100.201 68.5938 100.496 68.4896 100.699 68.2812C100.902 68.0677 101.003 67.7578 101.003 67.3516C101.003 67.1432 100.988 66.9531 100.957 66.7812C100.931 66.6042 100.881 66.4297 100.808 66.2578C100.74 66.0859 100.647 65.9062 100.527 65.7188C100.407 65.526 100.253 65.3125 100.066 65.0781L97.9566 62.5703C97.5816 62.0911 97.2925 61.6094 97.0894 61.125C96.8862 60.6354 96.7847 60.1146 96.7847 59.5625C96.7847 59.1198 96.8524 58.7135 96.9878 58.3438C97.1284 57.974 97.329 57.6562 97.5894 57.3906C97.8498 57.1198 98.1701 56.9115 98.5503 56.7656C98.9357 56.6146 99.3706 56.5391 99.855 56.5391C100.444 56.5391 100.933 56.6224 101.324 56.7891C101.72 56.9557 102.035 57.1745 102.269 57.4453C102.503 57.7161 102.667 58.0208 102.761 58.3594C102.86 58.6927 102.91 59.0286 102.91 59.3672C102.91 59.6536 102.886 59.9193 102.839 60.1641C102.798 60.4036 102.748 60.6693 102.691 60.9609H101.128V60.3281C101.128 59.6198 101.027 59.0781 100.824 58.7031C100.621 58.3229 100.29 58.1328 99.8316 58.1328C99.4514 58.1328 99.1675 58.2396 98.98 58.4531C98.7925 58.6615 98.6987 58.9427 98.6987 59.2969C98.6987 59.4844 98.7118 59.6536 98.7378 59.8047C98.7691 59.9557 98.8107 60.0964 98.8628 60.2266C98.9201 60.3516 98.9878 60.474 99.0659 60.5938C99.1441 60.7135 99.2326 60.8385 99.3316 60.9688L101.683 63.8125C102.11 64.3698 102.438 64.9062 102.667 65.4219C102.897 65.9323 103.011 66.474 103.011 67.0469C103.011 67.5208 102.936 67.9479 102.785 68.3281C102.639 68.7083 102.428 69.0312 102.152 69.2969C101.876 69.5625 101.542 69.7682 101.152 69.9141C100.761 70.0547 100.321 70.125 99.8316 70.125C99.2274 70.125 98.7248 70.0443 98.3237 69.8828C97.9279 69.7214 97.6102 69.5078 97.3706 69.2422C97.1362 68.9766 96.9696 68.6745 96.8706 68.3359C96.7769 67.9974 96.73 67.651 96.73 67.2969Z" fill="#FAFAFA"/>
</svg>
